# xmcd
#
# Track frame offsets: 
#        150
#        15147
#        58357
#
# Disc length: 1419 seconds
#
# Revision: 0
# Processed by: cddbd v1.5.2PL0 Copyright (c) Steve Scherf et al.
# Submitted via: ExactAudioCopy v1.0b1
#
DISCID=1b058903
DTITLE=The Temper Trap - Love Lost
DYEAR=2010
DGENRE=Indie
TTITLE0=Love Lost (Radio Edit)
TTITLE1=Love Lost (Rollo and Sister Bliss Remix)
TTITLE2=Love Lost (Video)
EXTD=
EXTT0=
EXTT1=
EXTT2=
PLAYORDER=
